<svg width="24" height="24" viewBox="0 0 24 24" fill="none" xmlns="http://www.w3.org/2000/svg">
<path fill-rule="evenodd" clip-rule="evenodd" d="M17 3H7L7 15H17V3ZM7 2C6.44772 2 6 2.44772 6 3V15C6 15.5523 6.44772 16 7 16H17C17.5523 16 18 15.5523 18 15V3C18 2.44772 17.5523 2 17 2H7Z" fill="black"/>
<path d="M6 18.5C6 18.2239 6.22386 18 6.5 18H17.5C17.7761 18 18 18.2239 18 18.5C18 18.7761 17.7761 19 17.5 19H6.5C6.22386 19 6 18.7761 6 18.5Z" fill="black"/>
<path d="M6 21.5C6 21.2239 6.22386 21 6.5 21H13.5C13.7761 21 14 21.2239 14 21.5C14 21.7761 13.7761 22 13.5 22H6.5C6.22386 22 6 21.7761 6 21.5Z" fill="black"/>
</svg>
