<svg width="24" height="24" viewBox="0 0 24 24" fill="none" xmlns="http://www.w3.org/2000/svg">
<path fill-rule="evenodd" clip-rule="evenodd" d="M21 6H3V18H21V6ZM3 5C2.44772 5 2 5.44772 2 6V18C2 18.5523 2.44772 19 3 19H21C21.5523 19 22 18.5523 22 18V6C22 5.44772 21.5523 5 21 5H3Z" fill="black"/>
<path d="M13.5767 9.22656C13.2531 9.22656 12.9907 9.48891 12.9907 9.8125V12.7526C12.9907 13.2366 12.5876 13.6016 12.053 13.6016H11.965C11.4305 13.6016 11.0273 13.2366 11.0273 12.7526V9.8125C11.0273 9.48891 10.765 9.22656 10.4414 9.22656C10.1178 9.22656 9.85547 9.48891 9.85547 9.8125V12.7526C9.85547 13.8858 10.7821 14.7734 11.965 14.7734C13.3412 14.7734 14.1626 13.8123 14.1626 12.7526V9.8125C14.1626 9.48891 13.9003 9.22656 13.5767 9.22656Z" fill="black"/>
<path d="M19.1657 9.33256C18.8946 9.15612 18.5316 9.23268 18.355 9.50397L17.4593 10.8799L16.5532 9.49221C16.3763 9.22119 16.0132 9.14506 15.7422 9.32198C15.4712 9.49889 15.395 9.86198 15.572 10.133L16.8737 12.1265L16.8687 14.1862C16.8678 14.5098 17.1296 14.7728 17.4532 14.7736C17.781 14.7736 18.0398 14.5094 18.0405 14.1891L18.0456 12.1274L19.3371 10.1433C19.5137 9.87205 19.437 9.50909 19.1657 9.33256Z" fill="black"/>
<path d="M7.88395 11.6541C8.53844 10.6016 7.77543 9.22656 6.52066 9.22656H5.23828C4.91469 9.22656 4.65234 9.48891 4.65234 9.8125V14.1875C4.65234 14.5069 4.90969 14.7734 5.24086 14.7734C5.25266 14.7734 6.42414 14.7682 6.74461 14.7682C8.38691 14.7682 9.15453 12.7148 7.88395 11.6541ZM6.52066 10.3984C6.7577 10.3984 6.95055 10.5872 6.95055 10.8192C6.95055 11.0512 6.7577 11.2399 6.52066 11.2399C6.35031 11.2399 6.17148 11.2411 5.82422 11.2411V10.3984H6.52066ZM6.74461 13.5964C6.57516 13.5964 6.17145 13.5978 5.82422 13.5991V12.4139C6.11133 12.4127 5.98508 12.413 6.74461 12.413C7.07676 12.413 7.34699 12.6784 7.34699 13.0046C7.34699 13.3309 7.07676 13.5964 6.74461 13.5964Z" fill="black"/>
</svg>
