<?xml version="1.0" encoding="UTF-8"?>
<svg version="1.1" viewBox="0 0 24 24" xmlns="http://www.w3.org/2000/svg">
 <path d="m21 3h-18v18h18v-18zm-18-1c-0.55228 0-1 0.44772-1 1v18c0 0.5523 0.44772 1 1 1h18c0.5523 0 1-0.4477 1-1v-18c0-0.55228-0.4477-1-1-1h-18z" clip-rule="evenodd" fill-rule="evenodd"/>
 <path d="m16.146 4.6464c0.19526-0.1952 0.51185-0.1952 0.70711 0l5 5c0.19526 0.1953 0.19526 0.5119 0 0.7072-0.19527 0.1952-0.51185 0.1952-0.70711 0l-4.6464-4.6465-5.6464 5.6465c-0.1953 0.1952-0.5119 0.1952-0.7071 0l-2.6646-2.6646-4.6474 4.1826c-0.2053 0.1848-0.5214 0.1681-0.7061-0.0371-0.1848-0.2053-0.1681-0.5214 0.0371-0.7061l5-4.5c0.1977-0.1779 0.5-0.17 0.6881 0.018l2.6464 2.6465z" clip-rule="evenodd" fill-rule="evenodd"/>
 <g transform="translate(33.045 2.1985)" clip-rule="evenodd" fill-rule="evenodd">
  <path d="m-20.5 10.994c0-0.27614 0.2239-0.5 0.5-0.5h6c0.2761 0 0.5 0.22386 0.5 0.5s-0.2239 0.5-0.5 0.5h-6c-0.2761 0-0.5-0.22386-0.5-0.5z"/>
  <path d="m-20.5 13.994c0-0.2761 0.2239-0.5 0.5-0.5h6c0.2761 0 0.5 0.2239 0.5 0.5s-0.2239 0.5-0.5 0.5h-6c-0.2761 0-0.5-0.2239-0.5-0.5z"/>
  <path d="m-20.5 16.994c0-0.2761 0.2239-0.5 0.5-0.5h3c0.2761 0 0.5 0.2239 0.5 0.5s-0.2239 0.5-0.5 0.5h-3c-0.2761 0-0.5-0.2239-0.5-0.5z"/>
 </g>
</svg>
