<svg xmlns="http://www.w3.org/2000/svg" >
	<defs>
		<style><![CDATA[
		.sprite { display: none; }
		.sprite:target { display: inline; }
		]]></style>
	</defs>

	<g class="sprite" id="icon-appendd" width="259" height="68" viewBox="0 0 259 68" fill="none">
		<path d="M30.763 39.615H10.395L6.643 50H0.211L17.095 3.569H24.13L40.947 50H34.515L30.763 39.615ZM29.021 34.657L20.579 11.073L12.137 34.657H29.021ZM54.4025 20.051C55.6085 17.9517 57.3952 16.2097 59.7625 14.825C62.1745 13.3957 64.9662 12.681 68.1375 12.681C71.3982 12.681 74.3462 13.4627 76.9815 15.026C79.6615 16.5893 81.7608 18.8003 83.2795 21.659C84.7982 24.473 85.5575 27.756 85.5575 31.508C85.5575 35.2153 84.7982 38.5207 83.2795 41.424C81.7608 44.3273 79.6615 46.583 76.9815 48.191C74.3462 49.799 71.3982 50.603 68.1375 50.603C65.0108 50.603 62.2415 49.9107 59.8295 48.526C57.4622 47.0967 55.6532 45.3323 54.4025 43.233V67.42H48.3055V13.284H54.4025V20.051ZM79.3265 31.508C79.3265 28.7387 78.7682 26.3267 77.6515 24.272C76.5348 22.2173 75.0162 20.654 73.0955 19.582C71.2195 18.51 69.1425 17.974 66.8645 17.974C64.6312 17.974 62.5542 18.5323 60.6335 19.649C58.7575 20.721 57.2388 22.3067 56.0775 24.406C54.9608 26.4607 54.4025 28.8503 54.4025 31.575C54.4025 34.3443 54.9608 36.7787 56.0775 38.878C57.2388 40.9327 58.7575 42.5183 60.6335 43.635C62.5542 44.707 64.6312 45.243 66.8645 45.243C69.1425 45.243 71.2195 44.707 73.0955 43.635C75.0162 42.5183 76.5348 40.9327 77.6515 38.878C78.7682 36.7787 79.3265 34.322 79.3265 31.508ZM99.6798 20.051C100.886 17.9517 102.672 16.2097 105.04 14.825C107.452 13.3957 110.243 12.681 113.415 12.681C116.675 12.681 119.623 13.4627 122.259 15.026C124.939 16.5893 127.038 18.8003 128.557 21.659C130.075 24.473 130.835 27.756 130.835 31.508C130.835 35.2153 130.075 38.5207 128.557 41.424C127.038 44.3273 124.939 46.583 122.259 48.191C119.623 49.799 116.675 50.603 113.415 50.603C110.288 50.603 107.519 49.9107 105.107 48.526C102.739 47.0967 100.93 45.3323 99.6798 43.233V67.42H93.5828V13.284H99.6798V20.051ZM124.604 31.508C124.604 28.7387 124.045 26.3267 122.929 24.272C121.812 22.2173 120.293 20.654 118.373 19.582C116.497 18.51 114.42 17.974 112.142 17.974C109.908 17.974 107.831 18.5323 105.911 19.649C104.035 20.721 102.516 22.3067 101.355 24.406C100.238 26.4607 99.6798 28.8503 99.6798 31.575C99.6798 34.3443 100.238 36.7787 101.355 38.878C102.516 40.9327 104.035 42.5183 105.911 43.635C107.831 44.707 109.908 45.243 112.142 45.243C114.42 45.243 116.497 44.707 118.373 43.635C120.293 42.5183 121.812 40.9327 122.929 38.878C124.045 36.7787 124.604 34.322 124.604 31.508ZM172.36 30.235C172.36 31.3963 172.293 32.6247 172.159 33.92H142.813C143.037 37.538 144.265 40.3743 146.498 42.429C148.776 44.439 151.523 45.444 154.739 45.444C157.375 45.444 159.563 44.841 161.305 43.635C163.092 42.3843 164.343 40.7317 165.057 38.677H171.623C170.641 42.2057 168.675 45.0867 165.727 47.32C162.779 49.5087 159.117 50.603 154.739 50.603C151.255 50.603 148.129 49.8213 145.359 48.258C142.635 46.6947 140.491 44.4837 138.927 41.625C137.364 38.7217 136.582 35.3717 136.582 31.575C136.582 27.7783 137.342 24.4507 138.86 21.592C140.379 18.7333 142.501 16.5447 145.225 15.026C147.995 13.4627 151.166 12.681 154.739 12.681C158.223 12.681 161.305 13.4403 163.985 14.959C166.665 16.4777 168.72 18.577 170.149 21.257C171.623 23.8923 172.36 26.885 172.36 30.235ZM166.062 28.962C166.062 26.6393 165.549 24.6517 164.521 22.999C163.494 21.3017 162.087 20.0287 160.3 19.18C158.558 18.2867 156.615 17.84 154.471 17.84C151.389 17.84 148.754 18.8227 146.565 20.788C144.421 22.7533 143.193 25.478 142.88 28.962H166.062ZM198.297 12.614C202.764 12.614 206.382 13.9763 209.151 16.701C211.92 19.381 213.305 23.267 213.305 28.359V50H207.275V29.23C207.275 25.5673 206.359 22.7757 204.528 20.855C202.697 18.8897 200.195 17.907 197.024 17.907C193.808 17.907 191.24 18.912 189.319 20.922C187.443 22.932 186.505 25.8577 186.505 29.699V50H180.408V13.284H186.505V18.51C187.711 16.634 189.341 15.1823 191.396 14.155C193.495 13.1277 195.796 12.614 198.297 12.614ZM220.986 31.508C220.986 27.756 221.746 24.473 223.264 21.659C224.783 18.8003 226.86 16.5893 229.495 15.026C232.175 13.4627 235.168 12.681 238.473 12.681C241.332 12.681 243.99 13.351 246.446 14.691C248.903 15.9863 250.779 17.706 252.074 19.85V0.419999H258.238V50H252.074V43.099C250.868 45.2877 249.082 47.0967 246.714 48.526C244.347 49.9107 241.578 50.603 238.406 50.603C235.146 50.603 232.175 49.799 229.495 48.191C226.86 46.583 224.783 44.3273 223.264 41.424C221.746 38.5207 220.986 35.2153 220.986 31.508ZM252.074 31.575C252.074 28.8057 251.516 26.3937 250.399 24.339C249.283 22.2843 247.764 20.721 245.843 19.649C243.967 18.5323 241.89 17.974 239.612 17.974C237.334 17.974 235.257 18.51 233.381 19.582C231.505 20.654 230.009 22.2173 228.892 24.272C227.776 26.3267 227.217 28.7387 227.217 31.508C227.217 34.322 227.776 36.7787 228.892 38.878C230.009 40.9327 231.505 42.5183 233.381 43.635C235.257 44.707 237.334 45.243 239.612 45.243C241.89 45.243 243.967 44.707 245.843 43.635C247.764 42.5183 249.283 40.9327 250.399 38.878C251.516 36.7787 252.074 34.3443 252.074 31.575Z " fill="#121212"/>
	</g>

	<g class="sprite" id="icon-white-heart" width="21" height="20" viewBox="0 0 21 20" fill="none">
		<path d="M14.9806 0.123428C14.1301 0.123428 13.3164 0.318317 12.5395 0.708096C11.7627 1.09787 11.1125 1.62191 10.5891 2.2802C10.0821 1.58726 9.44426 1.05456 8.67556 0.68211C7.90685 0.309656 7.0809 0.123428 6.1977 0.123428C5.20002 0.123428 4.26776 0.38328 3.40092 0.902983C2.56679 1.40536 1.90439 2.08964 1.41373 2.95581C0.923066 3.82198 0.677734 4.75745 0.677734 5.76221C0.677734 7.65047 1.16022 9.51274 2.12519 11.349C2.8939 12.8215 3.96518 14.2507 5.33904 15.6366C6.32037 16.6413 7.41619 17.5681 8.62649 18.417C9.37884 18.9713 9.93493 19.3351 10.2947 19.5084C10.3602 19.5777 10.4583 19.6123 10.5891 19.6123C10.72 19.6123 10.859 19.5777 11.0062 19.5084C11.3987 19.3005 11.9548 18.9367 12.6745 18.417C13.8684 17.5681 14.9642 16.6413 15.9619 15.6366C17.3194 14.2507 18.3825 12.8215 19.1512 11.349C20.1162 9.51274 20.5987 7.65047 20.5987 5.76221C20.5987 4.75745 20.3452 3.82198 19.8382 2.95581C19.3311 2.08964 18.6442 1.40103 17.7774 0.889992C16.9105 0.37895 15.9783 0.123428 14.9806 0.123428ZM10.5891 17.8713C9.5424 17.1957 8.57742 16.4768 7.69423 15.7145C6.14046 14.3806 4.9138 13.0034 4.01425 11.5829C2.80395 9.69463 2.19879 7.78905 2.19879 5.86615C2.19879 5.12124 2.38279 4.43264 2.75079 3.80033C3.11879 3.16802 3.60945 2.66564 4.22278 2.29319C4.83611 1.92074 5.49442 1.73451 6.1977 1.73451C7.01548 1.73451 7.75556 1.95971 8.41796 2.41012C9.08035 2.86053 9.56693 3.46685 9.87768 4.22908C9.94311 4.40232 10.0699 4.52358 10.2579 4.59288C10.446 4.66217 10.6423 4.66217 10.8467 4.59288C11.0512 4.52358 11.2025 4.40232 11.3006 4.22908C11.6114 3.46685 12.102 2.86053 12.7726 2.41012C13.4432 1.95971 14.1792 1.73451 14.9806 1.73451C15.7166 1.73451 16.3912 1.92074 17.0046 2.29319C17.6179 2.66564 18.1004 3.16802 18.452 3.80033C18.8037 4.43264 18.9795 5.12124 18.9795 5.86615C18.9795 7.75441 18.3743 9.64266 17.164 11.5309C16.2481 12.9514 15.0215 14.3373 13.4841 15.6885C12.5682 16.4854 11.6032 17.213 10.5891 17.8713Z" fill="white"/>
	</g>

	<g class="sprite" id="icon-black-bg-shopping-bag" width="32" height="33" viewBox="0 0 32 33" fill="none">
		<ellipse cx="16" cy="16.3879" rx="16" ry="15.9269" fill="black"/>
		<path d="M9.92 24.3517C9.38667 24.3517 8.93333 24.2051 8.56 23.9117C8.18667 23.6183 8 23.262 8 22.8429V13.2867C8 12.8676 8.18667 12.5113 8.56 12.2179C8.93333 11.9245 9.38667 11.7778 9.92 11.7778H12V11.5683C12 10.7021 12.3911 9.96161 13.1733 9.34689C13.9556 8.73217 14.8978 8.4248 16 8.4248C17.1022 8.4248 18.0444 8.73217 18.8267 9.34689C19.6089 9.96161 20 10.7021 20 11.5683V11.7778H22.08C22.6133 11.7778 23.0667 11.9245 23.44 12.2179C23.8133 12.5113 24 12.8676 24 13.2867V22.8429C24 23.262 23.8133 23.6183 23.44 23.9117C23.0667 24.2051 22.6133 24.3517 22.08 24.3517H9.92ZM9.92 23.0944H22.08C22.1511 23.0944 22.2222 23.0664 22.2933 23.0105C22.3644 22.9546 22.4 22.8988 22.4 22.8429V13.2867C22.4 13.2308 22.3644 13.1749 22.2933 13.1191C22.2222 13.0632 22.1511 13.0352 22.08 13.0352H20V14.9213C20 15.1029 19.9246 15.253 19.7739 15.3715C19.6224 15.4905 19.4311 15.55 19.2 15.55C18.9689 15.55 18.778 15.4905 18.6272 15.3715C18.4757 15.253 18.4 15.1029 18.4 14.9213V13.0352H13.6V14.9213C13.6 15.1029 13.5246 15.253 13.3739 15.3715C13.2224 15.4905 13.0311 15.55 12.8 15.55C12.5689 15.55 12.378 15.4905 12.2272 15.3715C12.0757 15.253 12 15.1029 12 14.9213V13.0352H9.92C9.84889 13.0352 9.77778 13.0632 9.70667 13.1191C9.63556 13.1749 9.6 13.2308 9.6 13.2867V22.8429C9.6 22.8988 9.63556 22.9546 9.70667 23.0105C9.77778 23.0664 9.84889 23.0944 9.92 23.0944ZM13.6 11.7778H18.4V11.5683C18.4 11.0374 18.1689 10.5903 17.7067 10.2271C17.2444 9.86382 16.6756 9.68219 16 9.68219C15.3244 9.68219 14.7556 9.86382 14.2933 10.2271C13.8311 10.5903 13.6 11.0374 13.6 11.5683V11.7778Z" fill="white"/>
	</g>

	<g class="sprite" id="icon-blue-bg-arrow" width="21" height="18" viewBox="0 0 21 18" fill="none">
		<path fill-rule="evenodd" clip-rule="evenodd" d="M10.3377 0.571215C15.825 0.667817 20.1835 4.61847 20.0725 9.39515C19.9615 14.1719 15.4231 17.9659 9.93578 17.8693C4.4484 17.7726 0.0899629 13.822 0.200938 9.04532C0.311912 4.26864 4.85027 0.474612 10.3377 0.571215ZM10.5325 12.2818C10.8176 12.5403 11.2893 12.5486 11.5863 12.3004L14.6273 9.75813C14.9242 9.50993 14.9337 9.09927 14.6486 8.84082L11.7281 6.19364C11.443 5.93518 10.9712 5.92688 10.6743 6.17509C10.3774 6.42329 10.3679 6.83395 10.653 7.0924L12.327 8.60985L6.17748 8.50159C5.76593 8.49435 5.42555 8.77891 5.41722 9.13715C5.4089 9.49539 5.73579 9.7917 6.14734 9.79894L12.2969 9.9072L10.5538 11.3645C10.2569 11.6127 10.2473 12.0234 10.5325 12.2818Z" fill="#1C274C"/>
	</g>

	<g class="sprite" id="icon-blue-bg-arrow-next" width="21" height="18" viewBox="0 0 21 18" fill="none">
		<path fill-rule="evenodd" clip-rule="evenodd" d="M10.1838 0.383315C4.69649 0.479919 0.338011 4.43066 0.448985 9.20745C0.55996 13.9843 5.09837 17.7784 10.5857 17.6818C16.0731 17.5851 20.4315 13.6345 20.3205 8.85762C20.2096 4.08082 15.6712 0.286709 10.1838 0.383315ZM9.98902 12.0942C9.70389 12.3527 9.23213 12.361 8.93523 12.1128L5.89421 9.57045C5.59731 9.32223 5.58777 8.91157 5.8729 8.65311L8.79336 6.00587C9.07849 5.74741 9.55024 5.7391 9.84715 5.98732C10.144 6.23553 10.1536 6.64619 9.86846 6.90465L8.19446 8.42214L14.344 8.31388C14.7556 8.30663 15.0959 8.5912 15.1043 8.94945C15.1126 9.3077 14.7857 9.60401 14.3741 9.61126L8.2246 9.71952L9.96771 11.1768C10.2646 11.425 10.2742 11.8358 9.98902 12.0942Z" fill="#1C274C"/>
	</g>

	<g class="sprite" id="icon-header-mens" width="24" height="24" viewBox="0 0 24 24" fill="none">
		<g clip-path="url(#clip0_611_6678)">
			<path d="M21.8906 2.8125H18.028L16.5842 0.347719C16.4562 0.129234 16.2215 0.00182813 15.9822 0.000234375C15.9806 0.000234375 15.9791 0 15.9776 0H8.02247C8.02092 0 8.01947 0.000234375 8.01792 0.000234375C7.77727 0.00196875 7.54238 0.131719 7.41586 0.347719L5.97202 2.8125H2.10938C0.946266 2.8125 0 3.75877 0 4.92188V21.8906C0 23.0537 0.946266 24 2.10938 24H21.8906C23.0537 24 24 23.0537 24 21.8906V4.92188C24 3.75877 23.0537 2.8125 21.8906 2.8125ZM6.375 11.2969H4.53633L6.32358 5.90541L10.3613 20.1047L7.07812 15.9734V12C7.07812 11.6117 6.76331 11.2969 6.375 11.2969ZM12 3.68625L9.72 1.40625H14.28L12 3.68625ZM12 6.36164L12.7676 8.02852C12.8638 8.23744 13.0561 8.38608 13.2825 8.42658C13.5089 8.46703 13.7407 8.39433 13.9035 8.23163L16.2084 5.92664L12 20.7262L7.79161 5.92659L10.0966 8.23158C10.2598 8.3948 10.4919 8.46689 10.7175 8.42653C10.944 8.38603 11.1362 8.23739 11.2325 8.02847L12 6.36164ZM17.6764 5.90541L19.4637 11.2969H17.625C17.2367 11.2969 16.9219 11.6117 16.9219 12V15.9734L13.6387 20.1047L17.6764 5.90541ZM13.6228 6.5235L12.8436 4.83141L15.831 1.84402L16.7438 3.40242L13.6228 6.5235ZM8.16905 1.84406L11.1564 4.83145L10.3772 6.52355L7.25616 3.40247L8.16905 1.84406ZM1.40625 21.8906V4.92188C1.40625 4.53417 1.72167 4.21875 2.10938 4.21875H5.40117L2.89509 11.7787C2.82403 11.9931 2.86027 12.2285 2.99245 12.4116C3.12464 12.5947 3.3367 12.7031 3.5625 12.7031H5.67188V16.2188C5.67188 16.3776 5.72569 16.5318 5.82455 16.6562L10.5431 22.5938H2.10938C1.72167 22.5938 1.40625 22.2783 1.40625 21.8906ZM22.5938 21.8906C22.5938 22.2783 22.2783 22.5938 21.8906 22.5938H13.4569L18.1755 16.6562C18.2743 16.5318 18.3281 16.3777 18.3281 16.2188V12.7031H20.4375C20.6633 12.7031 20.8754 12.5947 21.0075 12.4116C21.1397 12.2285 21.176 11.9931 21.1049 11.7788L18.5988 4.21875H21.8906C22.2783 4.21875 22.5938 4.53417 22.5938 4.92188V21.8906Z" fill="black"/>
			<path d="M12 11.2969C12.3883 11.2969 12.7031 10.9821 12.7031 10.5938C12.7031 10.2054 12.3883 9.89062 12 9.89062C11.6117 9.89062 11.2969 10.2054 11.2969 10.5938C11.2969 10.9821 11.6117 11.2969 12 11.2969Z" fill="black"/>
			<path d="M12 14.1094C12.3883 14.1094 12.7031 13.7946 12.7031 13.4062C12.7031 13.0179 12.3883 12.7031 12 12.7031C11.6117 12.7031 11.2969 13.0179 11.2969 13.4062C11.2969 13.7946 11.6117 14.1094 12 14.1094Z" fill="black"/>
		</g>
		<defs>
			<clipPath id="clip0_611_6678">
				<rect width="24" height="24" fill="white"/>
			</clipPath>
		</defs>
	</g>

	<g class="sprite" id="icon-header-womens" width="16" height="24" viewBox="0 0 16 24" fill="none">
		<path d="M11.7015 10.4348C11.8583 10.05 13.1873 7.88775 12.9598 5.99887C12.8425 5.02425 12.3741 4.41033 11.9978 3.91706C11.681 3.5017 11.5156 3.27089 11.5156 2.96752C11.5156 1.98042 11.5156 1.65333 11.5156 0.703125C11.5156 0.314812 11.2008 0 10.8125 0C10.4242 0 10.1094 0.314812 10.1094 0.703125V2.20312C10.1094 3.36623 9.16311 4.3125 8 4.3125C6.83689 4.3125 5.89062 3.36623 5.89062 2.20312V0.703125C5.89062 0.314812 5.57581 0 5.1875 0C4.79919 0 4.48438 0.314812 4.48438 0.703125V2.96752C4.48438 3.27084 4.31905 3.5017 4.00217 3.91702C3.62586 4.41033 3.15748 5.0242 3.04016 5.99883C2.81277 7.88719 4.14336 10.0544 4.298 10.4338C1.38167 12.693 0.265625 14.9864 0.265625 21.8906V23.2969C0.265625 23.6852 0.580437 24 0.96875 24H15.0312C15.4196 24 15.7344 23.6852 15.7344 23.2969V21.8907C15.7344 15.4527 14.8042 12.8565 11.7015 10.4348ZM4.43633 6.16702C4.52375 5.44088 4.92706 5.05022 5.33117 4.48767C5.83086 5.07056 6.51702 5.48902 7.29688 5.64797V6.42188C7.29688 6.81019 7.61169 7.125 8 7.125C8.38831 7.125 8.70312 6.81019 8.70312 6.42188V5.64802C9.48303 5.48906 10.1692 5.07056 10.6688 4.48772C11.0699 5.04609 11.476 5.43923 11.5637 6.16706C11.7349 7.58902 10.5715 9.48103 10.3779 9.93755H5.62208C5.42797 9.47981 4.26533 7.58709 4.43633 6.16702ZM14.3281 22.5938H11.5156V22.1188C11.5156 20.1038 11.2974 18.084 10.867 16.1154C10.784 15.7361 10.4094 15.4957 10.0299 15.5787C9.65056 15.6617 9.41028 16.0365 9.4932 16.4158C9.90205 18.2858 10.1094 20.2046 10.1094 22.1188V22.5938H5.89062V22.1188C5.89062 20.2046 6.09795 18.2858 6.5068 16.4158C6.58977 16.0365 6.34944 15.6617 5.97008 15.5787C5.59044 15.4958 5.21591 15.7361 5.13298 16.1154C4.70263 18.084 4.48438 20.1038 4.48438 22.1188V22.5938H1.67188V21.8906C1.67188 14.3616 3.15608 13.0485 5.42206 11.3438H10.5771C12.9757 13.1642 14.3281 14.6996 14.3281 21.8907V22.5938Z" fill="black"/>
	</g>

	<g class="sprite" id="icon-header-brands" width="24" height="24" viewBox="0 0 24 24" fill="none">
		<g clip-path="url(#clip0_556_4043)">
			<path d="M4.21875 13.4062C4.21875 12.8664 4.01466 12.3735 3.67992 12C4.01466 11.6265 4.21875 11.1336 4.21875 10.5938C4.21875 9.43064 3.27248 8.48438 2.10938 8.48438H0V15.5156H2.10938C3.27248 15.5156 4.21875 14.5694 4.21875 13.4062ZM1.40625 9.89062H2.10938C2.49708 9.89062 2.8125 10.206 2.8125 10.5938C2.8125 10.9815 2.49708 11.2969 2.10938 11.2969H1.40625V9.89062ZM1.40625 12.7031H2.10938C2.49708 12.7031 2.8125 13.0185 2.8125 13.4062C2.8125 13.794 2.49708 14.1094 2.10938 14.1094H1.40625V12.7031Z" fill="black"/>
			<path d="M9.1875 10.5938C9.1875 9.43064 8.24123 8.48438 7.07812 8.48438H4.96875V15.5156H6.375V12.7031H6.64355L8.16989 15.7559L9.42769 15.1269L8.08706 12.4457C8.74219 12.0873 9.1875 11.3916 9.1875 10.5938ZM6.375 11.2969V9.89062H7.07812C7.46583 9.89062 7.78125 10.206 7.78125 10.5938C7.78125 10.9815 7.46583 11.2969 7.07812 11.2969H6.375Z" fill="black"/>
			<path d="M14.1094 15.5156C14.1094 14.5113 14.1094 11.5938 14.1094 10.5938C14.1094 9.43064 13.1631 8.48438 12 8.48438C10.8369 8.48438 9.89062 9.43064 9.89062 10.5938V15.5156H11.2969V12.7031H12.7031V15.5156H14.1094ZM11.2969 11.2969V10.5938C11.2969 10.206 11.6123 9.89062 12 9.89062C12.3877 9.89062 12.7031 10.206 12.7031 10.5938V11.2969H11.2969Z" fill="black"/>
			<path d="M21.8906 8.48438H19.7344V15.5156H21.8906C23.0537 15.5156 24 14.5694 24 13.4062V10.5938C24 9.43064 23.0537 8.48438 21.8906 8.48438ZM22.5938 13.4062C22.5938 13.794 22.2783 14.1094 21.8906 14.1094H21.1406V9.89062H21.8906C22.2783 9.89062 22.5938 10.206 22.5938 10.5938V13.4062Z" fill="black"/>
			<path d="M17.076 15.5156H19.0312V8.48438H17.625V11.9134L16.7678 8.48438H14.8125V15.5156H16.2188V12.0866L17.076 15.5156Z" fill="black"/>
			<path d="M20.9184 5.67238C20.9133 5.63502 20.9111 5.5971 20.912 5.55876L20.9198 5.24127C20.934 4.66673 20.709 4.10418 20.3027 3.69791C19.8963 3.29146 19.3345 3.06435 18.7592 3.08066L18.4418 3.08849C18.1443 3.09496 17.875 2.91491 17.7685 2.63863L17.6542 2.34229C17.4474 1.80613 17.0243 1.37254 16.4933 1.15251C15.9625 0.932664 15.3567 0.94007 14.8312 1.17299L14.541 1.30171C14.2702 1.42185 13.951 1.35824 13.7468 1.1437L13.5278 0.913727C13.1315 0.497523 12.5747 0.258789 12 0.258789C11.4253 0.258789 10.8684 0.497523 10.4723 0.913727L10.2533 1.1437C10.0491 1.35824 9.72984 1.4218 9.45914 1.30171L9.16875 1.17299C8.64338 0.94007 8.03761 0.932617 7.50666 1.15255C6.9757 1.37249 6.55261 1.80613 6.34584 2.34229L6.23156 2.63854C6.12497 2.91491 5.85473 3.09463 5.5583 3.08849L5.24081 3.08066C4.66645 3.06487 4.10372 3.29146 3.69741 3.69782C3.29105 4.10418 3.06609 4.66673 3.0802 5.24127L3.08803 5.55871C3.08897 5.59701 3.08677 5.63502 3.08166 5.67238H0V7.07863H24V5.67238H20.9184ZM4.49377 5.52412L4.48594 5.20673C4.4812 5.0152 4.5562 4.8277 4.69167 4.69223C4.82714 4.55671 5.01469 4.48204 5.20608 4.48645L5.52356 4.49427C5.54086 4.49474 5.55806 4.49493 5.57531 4.49493C6.4433 4.49493 7.22991 3.9576 7.5435 3.1446L7.65778 2.8483C7.72669 2.66962 7.86773 2.52505 8.04473 2.45174C8.22169 2.37848 8.42358 2.38091 8.5987 2.45859L8.88905 2.5873C9.70139 2.9474 10.659 2.75695 11.2717 2.11335L11.4907 1.88338C11.6227 1.74463 11.8083 1.66509 11.9999 1.66509C12.1915 1.66509 12.3771 1.74463 12.5092 1.88338L12.7281 2.11335C13.3409 2.75695 14.2984 2.94745 15.1108 2.5873L15.4011 2.45859C15.5762 2.38096 15.7782 2.37852 15.955 2.45174C16.132 2.52505 16.2731 2.66962 16.342 2.8483L16.4563 3.1447C16.7699 3.9577 17.5565 4.49502 18.4245 4.49498C18.4417 4.49498 18.459 4.49479 18.4763 4.49432L18.7937 4.48649C18.9848 4.4812 19.1726 4.55676 19.3082 4.69232C19.4437 4.82774 19.5186 5.01524 19.5139 5.20668L19.5061 5.52426C19.5049 5.5739 19.5057 5.62326 19.5078 5.67243H4.49203C4.49423 5.62316 4.49498 5.57376 4.49377 5.52412Z" fill="black"/>
			<path d="M0 18.3282H3.08156C3.08667 18.3655 3.08887 18.4035 3.08794 18.4418L3.08011 18.7593C3.066 19.3338 3.29095 19.8964 3.69731 20.3027C4.10367 20.7091 4.66664 20.9345 5.24077 20.9199L5.55816 20.9121C5.85525 20.9064 6.12488 21.0856 6.23147 21.362L6.34575 21.6583C6.55252 22.1944 6.97561 22.628 7.50661 22.848C8.03752 23.0679 8.64328 23.0605 9.16875 22.8276L9.459 22.6988C9.72975 22.5788 10.049 22.6423 10.2532 22.8569L10.4722 23.0868C10.8684 23.503 11.4253 23.7418 12 23.7418C12.5746 23.7418 13.1315 23.503 13.5278 23.0868L13.7467 22.8569C13.9509 22.6423 14.2702 22.5787 14.5409 22.6988L14.8312 22.8276C15.3565 23.0605 15.9624 23.0679 16.4933 22.848C17.0243 22.6281 17.4474 22.1944 17.6542 21.6582L17.7684 21.362C17.875 21.0856 18.1471 20.9059 18.4417 20.9121L18.7592 20.9199C19.3341 20.9351 19.8963 20.709 20.3025 20.3027C20.709 19.8964 20.934 19.3338 20.9198 18.7592L20.912 18.4419C20.911 18.4035 20.9133 18.3655 20.9184 18.3281H24V16.9219H0L0 18.3282ZM19.5062 18.4765L19.5141 18.7939C19.5188 18.9854 19.4438 19.1729 19.3082 19.3084C19.1728 19.4438 18.985 19.5186 18.7939 19.5141L18.4764 19.5063C17.5887 19.4821 16.7762 20.0268 16.4564 20.856L16.3421 21.1523C16.2732 21.3309 16.1322 21.4755 15.9552 21.5488C15.7783 21.6221 15.5762 21.6196 15.4012 21.542L15.1109 21.4133C14.2986 21.0532 13.341 21.2436 12.7282 21.8872L12.5093 22.1172C12.3772 22.2559 12.1916 22.3355 12 22.3355C11.8084 22.3355 11.6228 22.2559 11.4907 22.1172L11.2718 21.8872C10.659 21.2437 9.70158 21.0532 8.88909 21.4133L8.59884 21.542C8.42377 21.6196 8.22178 21.6221 8.04483 21.5488C7.86783 21.4755 7.72673 21.3309 7.65783 21.1522L7.54355 20.8559C7.22372 20.0268 6.41077 19.4826 5.52356 19.5062L5.20613 19.5141C5.0152 19.519 4.82714 19.4438 4.69162 19.3082C4.5562 19.1728 4.4812 18.9853 4.48594 18.7938L4.49377 18.4764C4.49498 18.4267 4.49423 18.3773 4.49203 18.3281H19.508C19.5058 18.3774 19.505 18.4268 19.5062 18.4765Z" fill="black"/>
		</g>
		<defs>
			<clipPath id="clip0_556_4043">
				<rect width="24" height="24" fill="white"/>
			</clipPath>
		</defs>
	</g>

	<g class="sprite" id="icon-header-shop-bag" width="24" height="24" viewBox="0 0 24 24" fill="none">
		<g clip-path="url(#clip0_556_4027)">
			<path d="M22.4311 8.94891H17.5084V6.13458H12.47V5.12219C12.47 3.07324 10.803 1.40625 8.75408 1.40625C6.70513 1.40625 5.03832 3.07324 5.03832 5.12219V6.13458H-7.62939e-06V22.5884H24L22.4311 8.94891ZM6.44421 5.12201C6.44421 3.84833 7.48058 2.81232 8.75426 2.81232C10.0278 2.81232 11.0641 3.84833 11.0641 5.12201V6.13458H6.44439V5.12201H6.44421ZM8.90624 21.1824H1.40606V7.54065H16.1023V8.94891H10.3134L8.90624 21.1824ZM10.3216 21.1824L11.5669 10.355H21.1774L22.4229 21.1824H10.3216Z" fill="black"/>
			<path d="M18.2131 14.9359C18.2131 15.4058 17.8308 15.7881 17.361 15.7881H15.3836C14.9138 15.7881 14.5314 15.4058 14.5314 14.9359V11.7627H13.1254V14.9359C13.1254 16.181 14.1383 17.1942 15.3836 17.1942H17.361C18.6061 17.1942 19.6192 16.181 19.6192 14.9359V11.7627H18.2131V14.9359Z" fill="black"/>
		</g>
		<defs>
			<clipPath id="clip0_556_4027">
				<rect width="24" height="24" fill="white"/>
			</clipPath>
		</defs>
	</g>

	<g class="sprite" id="icon-header-login" width="24" height="24" viewBox="0 0 24 24" fill="none">
		<g clip-path="url(#clip0_556_4030)">
			<path d="M16.2422 0V4.00533H11.2969V8.4375L8.50781 5.64844V9.1875H0V14.8125H8.50781V18.3516L11.2969 15.5625V19.9947H16.2422V24L24 19.706V4.29398L16.2422 0ZM1.40625 13.4062V10.5938H9.91406V9.04341L12.8707 12L9.91406 14.9566V13.4062H1.40625ZM12.7031 18.5884V14.1562L14.8594 12L12.7031 9.84375V5.41158H16.2422V18.5884H12.7031V18.5884ZM22.5938 18.8771L17.6484 21.6143V2.3857L22.5938 5.12292V18.8771Z" fill="black"/>
		</g>
		<defs>
			<clipPath id="clip0_556_4030">
				<rect width="24" height="24" fill="white"/>
			</clipPath>
		</defs>
	</g>

	<g class="sprite" id="icon-header-cart" width="24" height="24" viewBox="0 0 24 24" fill="none">
		<path d="M7.96875 19.7812C7.19334 19.7812 6.5625 20.4121 6.5625 21.1875C6.5625 21.9629 7.19334 22.5938 7.96875 22.5938C8.74416 22.5938 9.375 21.9629 9.375 21.1875C9.375 20.4121 8.74416 19.7812 7.96875 19.7812Z" fill="black"/>
		<path d="M18.5625 19.7812C17.7871 19.7812 17.1562 20.4121 17.1562 21.1875C17.1562 21.9629 17.7871 22.5938 18.5625 22.5938C19.3379 22.5938 19.9688 21.9629 19.9688 21.1875C19.9688 20.4121 19.3379 19.7812 18.5625 19.7812Z" fill="black"/>
		<path d="M6.5625 15.5625V16.9688H19.4131L24 5.52633V4.21875H5.15625V1.40625H0V2.8125H3.75V16.2656C3.75 18.2041 5.32711 19.7812 7.26562 19.7812H7.96875H18.5625H21.375V18.375H7.26562C6.10252 18.375 5.15625 17.4287 5.15625 16.2656V5.625H22.4454L18.4618 15.5625H6.5625Z" fill="black"/>
	</g>

	<g class="sprite" id="icon-header-search" width="24" height="24" viewBox="0 0 24 24" fill="none">
		<path d="M23.7266 22.4071L17.8694 16.5501C19.3253 14.7993 20.2024 12.5512 20.2024 10.1016C20.2024 4.53154 15.671 0 10.1013 0C4.5314 0 0 4.53154 0 10.1016C0 15.6712 4.5314 20.2024 10.1013 20.2024C12.5507 20.2024 14.799 19.3254 16.5498 17.8695L22.4071 23.7267C22.5892 23.9089 22.8281 24 23.0668 24C23.3056 24 23.5444 23.9089 23.7267 23.7267C24.0911 23.3623 24.0911 22.7715 23.7266 22.4071ZM1.86621 10.1016C1.86621 5.56057 5.56043 1.86621 10.1013 1.86621C14.642 1.86621 18.3361 5.56057 18.3361 10.1016C18.3361 14.6422 14.642 18.3362 10.1013 18.3362C5.56043 18.3362 1.86621 14.6422 1.86621 10.1016Z" fill="black"/>
	</g>

	<g class="sprite" id="icon-black-plus" width="12" height="12" viewBox="0 0 12 12" fill="none">
		<path d="M6 6H1M6 1V6V1ZM6 6V11V6ZM6 6H11H6Z" stroke="#374151" stroke-width="2" stroke-linecap="round" stroke-linejoin="round"/>
	</g>

	<g class="sprite" id="icon-black-minus" width="14" height="2" viewBox="0 0 14 2" fill="none" >
		<path d="M13 1H1" stroke="#374151" stroke-width="2" stroke-linecap="round" stroke-linejoin="round"/>
	</g>

	<g class="sprite" id="icon-chevron-right" width="9" height="14" viewBox="0 0 9 14" fill="none">
		<path d="M1.5 1.16699L7.33333 7.00033L1.5 12.8337" stroke="#4A5568" stroke-width="2" stroke-linecap="round" stroke-linejoin="round"/>
	</g>

	<g class="sprite" id="icon-menu-bar-sm" width="24" height="24" viewBox="0 0 24 24" fill="none">
		<path d="M0 24V20H24V24H0ZM0 14V10H24V14H0ZM0 4V0H24V4H0Z" fill="#121212"/>
	</g>

	<g class="sprite" id="icon-header-search" width="24" height="24" viewBox="0 0 24 24" fill="none">
		<path d="M23.7266 22.4071L17.8694 16.5501C19.3253 14.7993 20.2024 12.5512 20.2024 10.1016C20.2024 4.53154 15.671 0 10.1013 0C4.5314 0 0 4.53154 0 10.1016C0 15.6712 4.5314 20.2024 10.1013 20.2024C12.5507 20.2024 14.799 19.3254 16.5498 17.8695L22.4071 23.7267C22.5892 23.9089 22.8281 24 23.0668 24C23.3056 24 23.5444 23.9089 23.7267 23.7267C24.0911 23.3623 24.0911 22.7715 23.7266 22.4071ZM1.86621 10.1016C1.86621 5.56057 5.56043 1.86621 10.1013 1.86621C14.642 1.86621 18.3361 5.56057 18.3361 10.1016C18.3361 14.6422 14.642 18.3362 10.1013 18.3362C5.56043 18.3362 1.86621 14.6422 1.86621 10.1016Z" fill="black"/>
	</g>

	<g class="sprite" id="icon-menu-pinterest" width="24" height="24" viewBox="0 0 25 24" fill="none">
		<path fill-rule="evenodd" clip-rule="evenodd" d="M12.5 2.25C7.11522 2.25 2.75 6.61522 2.75 12C2.75 17.3848 7.11522 21.75 12.5 21.75C17.8848 21.75 22.25 17.3848 22.25 12C22.25 6.61522 17.8848 2.25 12.5 2.25ZM4.25 12C4.25 7.44365 7.94365 3.75 12.5 3.75C17.0563 3.75 20.75 7.44365 20.75 12C20.75 16.5563 17.0563 20.25 12.5 20.25C11.6427 20.25 10.816 20.1192 10.0386 19.8766C10.4612 19.213 10.7973 18.498 11.0387 17.7491L11.5553 15.7719C11.7687 16.0765 12.0548 16.3229 12.3877 16.4888C12.7205 16.6547 13.0895 16.7348 13.4612 16.7219C15.9965 16.7219 17.7778 14.4181 17.7778 11.5563C17.7778 8.80719 15.5334 6.75282 12.6537 6.75282C9.06746 6.75282 7.16152 9.16344 7.16152 11.7819C7.16152 13.005 7.80871 14.5191 8.84777 15.0059C9.00214 15.0772 9.10308 15.0059 9.12683 14.8931C9.15057 14.7804 9.29292 14.211 9.35828 13.9495C9.36853 13.9081 9.3686 13.8643 9.35825 13.8229C9.3479 13.7815 9.32756 13.7433 9.29902 13.7116C8.90647 13.1585 8.69867 12.4957 8.70527 11.8175C8.70321 11.3307 8.79996 10.8486 8.98964 10.4003C9.17932 9.95195 9.458 9.54679 9.80881 9.2093C10.1596 8.87181 10.5753 8.60902 11.0306 8.43682C11.4859 8.26463 11.9714 8.18662 12.4578 8.20751C12.9133 8.18086 13.3694 8.24946 13.7969 8.40892C14.2245 8.56838 14.6141 8.8152 14.9409 9.13365C15.2677 9.45209 15.5246 9.83516 15.6951 10.2584C15.8656 10.6817 15.946 11.1358 15.9312 11.5919C15.9312 13.8363 14.7912 15.3978 13.3187 15.3978C13.1285 15.4124 12.9375 15.381 12.762 15.3062C12.5865 15.2313 12.4317 15.1153 12.3105 14.9679C12.1893 14.8206 12.1055 14.6462 12.066 14.4595C12.0265 14.2729 12.0326 14.0794 12.0837 13.8956C12.1681 13.5454 12.2795 13.1847 12.388 12.8332C12.5849 12.1955 12.7725 11.5881 12.7725 11.1288C12.793 10.9796 12.7811 10.8277 12.7375 10.6835C12.6939 10.5394 12.6196 10.4064 12.5198 10.2936C12.42 10.1808 12.297 10.0909 12.1592 10.0301C12.0214 9.9693 11.8721 9.93899 11.7215 9.94126C10.8903 9.94126 10.2193 10.8081 10.2193 11.96C10.2131 12.3671 10.2899 12.7711 10.445 13.1475L9.46527 17.3038C9.34525 18.0891 9.34499 18.8882 9.46449 19.6736C8.81392 19.4161 8.20391 19.0782 7.64671 18.6722C6.66962 17.9584 5.85317 17.0348 5.26292 15.9593C5.03071 15.5362 4.83712 15.0962 4.68299 14.6446C4.40223 13.8144 4.25 12.925 4.25 12Z" fill="#121212"/>
	</g>

	<g class="sprite" id="icon-menu-facebook" width="24" height="24" viewBox="0 0 24 24" fill="none">
		<path fill-rule="evenodd" clip-rule="evenodd" d="M10.4877 3.78769C11.4723 2.80312 12.8076 2.25 14.2 2.25H16.9C17.3142 2.25 17.65 2.58579 17.65 3V6.6C17.65 7.01421 17.3142 7.35 16.9 7.35H14.2C14.1602 7.35 14.1221 7.3658 14.0939 7.39393C14.0658 7.42206 14.05 7.46022 14.05 7.5V9.45H16.9C17.131 9.45 17.349 9.5564 17.4912 9.73844C17.6333 9.92048 17.6836 10.1578 17.6276 10.3819L16.7276 13.9819C16.6441 14.3158 16.3442 14.55 16 14.55H14.05V21C14.05 21.4142 13.7142 21.75 13.3 21.75H9.7C9.28579 21.75 8.95 21.4142 8.95 21V14.55H7C6.58579 14.55 6.25 14.2142 6.25 13.8V10.2C6.25 9.78579 6.58579 9.45 7 9.45H8.95V7.5C8.95 6.10761 9.50312 4.77226 10.4877 3.78769ZM14.2 3.75C13.2054 3.75 12.2516 4.14509 11.5483 4.84835C10.8451 5.55161 10.45 6.50544 10.45 7.5V10.2C10.45 10.6142 10.1142 10.95 9.7 10.95H7.75V13.05H9.7C10.1142 13.05 10.45 13.3858 10.45 13.8V20.25H12.55V13.8C12.55 13.3858 12.8858 13.05 13.3 13.05H15.4144L15.9394 10.95H13.3C12.8858 10.95 12.55 10.6142 12.55 10.2V7.5C12.55 7.06239 12.7238 6.64271 13.0333 6.33327C13.3427 6.02384 13.7624 5.85 14.2 5.85H16.15V3.75H14.2Z" fill="#121212"/>
	</g>

	<g class="sprite" id="icon-menu-instagram" width="24" height="24" viewBox="0 0 24 24" fill="none">
		<path d="M15.9997 7.00053C15.9997 6.44825 16.4474 6.00053 16.9997 6.00053C17.552 6.00053 17.9997 6.44825 17.9997 7.00053C17.9997 7.55282 17.552 8.00053 16.9997 8.00053C16.4474 8.00053 15.9997 7.55282 15.9997 7.00053Z" fill="#121212"/>
		<path fill-rule="evenodd" clip-rule="evenodd" d="M11.9997 7.25053C9.37634 7.25053 7.24969 9.37718 7.24969 12.0005C7.24969 14.6239 9.37634 16.7505 11.9997 16.7505C14.623 16.7505 16.7497 14.6239 16.7497 12.0005C16.7497 9.37718 14.623 7.25053 11.9997 7.25053ZM8.74969 12.0005C8.74969 10.2056 10.2048 8.75053 11.9997 8.75053C13.7946 8.75053 15.2497 10.2056 15.2497 12.0005C15.2497 13.7955 13.7946 15.2505 11.9997 15.2505C10.2048 15.2505 8.74969 13.7955 8.74969 12.0005Z" fill="#121212"/>
		<path fill-rule="evenodd" clip-rule="evenodd" d="M17.2579 2.83355C13.7914 2.44611 10.208 2.44611 6.74146 2.83355C4.72941 3.05843 3.10507 4.64344 2.86852 6.66597C2.45398 10.2103 2.45398 13.7908 2.86852 17.3351C3.10507 19.3576 4.72941 20.9426 6.74146 21.1675C10.208 21.555 13.7914 21.555 17.2579 21.1675C19.27 20.9426 20.8943 19.3576 21.1309 17.3351C21.5454 13.7908 21.5454 10.2103 21.1309 6.66597C20.8943 4.64344 19.27 3.05843 17.2579 2.83355ZM6.90807 4.32427C10.2639 3.9492 13.7355 3.9492 17.0913 4.32427C18.4214 4.47293 19.4869 5.52254 19.641 6.84022C20.042 10.2687 20.042 13.7323 19.641 17.1609C19.4869 18.4785 18.4214 19.5281 17.0913 19.6768C13.7355 20.0519 10.2639 20.0519 6.90807 19.6768C5.57797 19.5281 4.51248 18.4785 4.35837 17.1609C3.95737 13.7323 3.95737 10.2687 4.35837 6.84022C4.51248 5.52254 5.57797 4.47293 6.90807 4.32427Z" fill="#121212"/>
	</g>

	<g class="sprite" id="icon-menu-telegram" width="24" height="24" viewBox="0 0 24 24" fill="none">
		<path fill-rule="evenodd" clip-rule="evenodd" d="M5.78778 14.0196C5.83155 14.0344 5.87574 14.0448 5.91988 14.0512C5.96801 14.1644 6.03021 14.3107 6.10276 14.4818C6.27984 14.8994 6.51843 15.4643 6.76471 16.0535C7.26695 17.2552 7.77356 18.4939 7.88545 18.8485C8.02396 19.2868 8.17037 19.5848 8.33021 19.7883C8.41285 19.8935 8.50843 19.9853 8.62028 20.0549C8.67657 20.0899 8.73605 20.1186 8.79813 20.14C8.80086 20.141 8.80359 20.1419 8.80633 20.1428C9.12634 20.2636 9.4181 20.2133 9.60077 20.1518C9.69851 20.1188 9.7776 20.0791 9.83364 20.0469C9.86222 20.0304 9.88636 20.0151 9.90562 20.0021L9.91017 19.9991L12.7364 18.2366L16.0009 20.7394C16.0491 20.7763 16.1016 20.8073 16.1573 20.8316C16.5494 21.0027 16.9292 21.0624 17.2865 21.0136C17.6431 20.9649 17.9263 20.8151 18.1371 20.6464C18.3435 20.4813 18.4834 20.2963 18.5705 20.1589C18.615 20.0887 18.6485 20.0266 18.672 19.9791C18.6839 19.9552 18.6934 19.9346 18.7007 19.9181L18.7102 19.8963L18.7137 19.8877L18.7152 19.8841L18.7159 19.8824L18.7165 19.8808C18.7337 19.8379 18.7468 19.7935 18.7558 19.7482L21.736 4.72274C21.7456 4.67469 21.7504 4.62581 21.7504 4.57682C21.7504 4.13681 21.5846 3.71841 21.1947 3.46452C20.8616 3.24752 20.4904 3.23818 20.2558 3.25598C20.0028 3.27519 19.769 3.33766 19.6122 3.38757C19.5306 3.41355 19.4622 3.43861 19.4128 3.45773C19.3881 3.46734 19.3677 3.47559 19.3526 3.48188L19.3412 3.48666L2.6275 10.0432L2.62533 10.044C2.61468 10.0479 2.60101 10.053 2.58475 10.0593C2.55239 10.0719 2.50903 10.0896 2.45838 10.1126C2.35959 10.1574 2.22101 10.2273 2.0788 10.3247C1.85162 10.4803 1.32912 10.9064 1.41711 11.6097C1.48729 12.1708 1.87168 12.5154 2.10587 12.6811C2.23446 12.7721 2.35662 12.8371 2.44559 12.8795C2.48687 12.8991 2.57256 12.9339 2.60975 12.9491L2.61913 12.9529L5.78778 14.0196ZM19.9261 4.86786L19.9238 4.86888C19.9155 4.8725 19.9071 4.87596 19.8987 4.87928L3.16465 11.4438C3.15591 11.4472 3.14711 11.4505 3.13825 11.4536L3.12893 11.4571C3.11823 11.4613 3.1002 11.4686 3.07758 11.4788C3.06475 11.4846 3.05137 11.491 3.03772 11.4978C3.05647 11.5084 3.07442 11.5175 3.09036 11.5251C3.10567 11.5324 3.11735 11.5374 3.12374 11.54L6.26637 12.598C6.32389 12.6174 6.37752 12.643 6.42674 12.674L16.8035 6.59948L16.8132 6.59374C16.8208 6.58927 16.8307 6.58353 16.8426 6.5768C16.8662 6.56345 16.8987 6.54568 16.9373 6.52603C17.0093 6.48938 17.1245 6.43497 17.2543 6.39485C17.3447 6.36692 17.6112 6.28823 17.8993 6.38064C18.0771 6.43767 18.2612 6.56028 18.3809 6.76798C18.4404 6.87117 18.4721 6.97483 18.4874 7.06972C18.5282 7.2192 18.5218 7.36681 18.4898 7.49424C18.4211 7.76875 18.2282 7.98287 18.0527 8.14665C17.9024 8.28706 15.957 10.1629 14.0378 12.0147C13.0808 12.9381 12.1335 13.8525 11.4255 14.5359L10.9604 14.9849L16.8323 19.4867C16.967 19.5349 17.0466 19.5325 17.0835 19.5274C17.1273 19.5214 17.1633 19.5045 17.1999 19.4752C17.241 19.4424 17.2769 19.398 17.3037 19.3557L17.3048 19.354L20.1953 4.78102C20.1523 4.79133 20.109 4.80361 20.0672 4.81691C20.0198 4.83198 19.9808 4.84634 19.9549 4.85637C19.9421 4.86134 19.9329 4.86511 19.9278 4.86719L19.9261 4.86786ZM11.4649 17.2618L10.2934 16.3636L10.0095 18.1693L11.4649 17.2618ZM9.2187 14.5814L10.3837 13.4567C11.0918 12.7732 12.0391 11.8588 12.9963 10.9352L13.9688 9.997L7.44877 13.8138L7.48376 13.8963C7.66146 14.3154 7.90111 14.8827 8.14869 15.4751C8.33382 15.918 8.52741 16.3844 8.70374 16.8162L8.98677 15.0158C9.01406 14.8422 9.09886 14.692 9.2187 14.5814Z" fill="#121212"/>
	</g>

	<g class="sprite" id="icon-menu-twitter" width="24" height="24" viewBox="0 0 25 24" fill="none">
		<path fill-rule="evenodd" clip-rule="evenodd" d="M15.5215 3.34267C16.0299 3.25559 16.5992 3.22651 17.135 3.31715C18.0918 3.47904 18.9757 3.92376 19.6744 4.59052C20.1311 4.60085 20.5799 4.51088 20.977 4.38262C21.3131 4.27407 21.597 4.14299 21.796 4.03936C21.8949 3.98783 21.9713 3.94387 22.021 3.91411C22.0458 3.89925 22.0638 3.88801 22.0745 3.88122L22.0841 3.87516C22.3809 3.67743 22.7761 3.71591 23.029 3.96742C23.2819 4.21898 23.3226 4.6139 23.1264 4.9118C22.9187 5.2271 22.6303 5.78917 22.3073 6.41893C22.2565 6.51795 22.2048 6.61864 22.1525 6.72031C21.9672 7.08027 21.7772 7.44409 21.6001 7.75622C21.4889 7.95221 21.37 8.15118 21.2501 8.32312V8.5969C21.2577 9.60253 21.1424 10.6029 20.9083 11.5761C20.761 12.1885 20.5667 12.7901 20.3265 13.3754C19.7041 14.8921 18.7857 16.2695 17.6249 17.4273C16.4642 18.5851 15.0844 19.4999 13.5662 20.1184C12.0492 20.7364 10.4245 21.0462 8.78665 21.0298C6.41234 21.0319 4.08798 20.3478 2.09326 19.0599C1.79945 18.8702 1.67576 18.5026 1.79509 18.1739C1.91443 17.8451 2.24512 17.6425 2.59219 17.6855C2.89255 17.7226 3.19496 17.7408 3.49762 17.7398C4.58507 17.7367 5.65181 17.4965 6.62567 17.0438C6.31612 16.9029 6.02058 16.7292 5.74443 16.5244C4.93271 15.9225 4.3288 15.0825 4.01673 14.1214C3.93564 13.8716 3.99108 13.5977 4.16289 13.3991C4.16597 13.3955 4.16908 13.392 4.17221 13.3885C3.98869 13.2249 3.81696 13.0467 3.65886 12.855C2.94754 11.9928 2.55587 10.9114 2.55009 9.79367L2.55007 9.78979L2.55008 9.73979C2.55008 9.47393 2.69083 9.22793 2.92003 9.09321C2.97813 9.05906 3.03972 9.03336 3.10307 9.01611C2.76473 8.34103 2.58879 7.59559 2.59007 6.83933C2.58968 5.98256 2.81347 5.14059 3.23923 4.39709C3.36214 4.18246 3.58297 4.04222 3.8295 4.02224C4.07603 4.00227 4.31656 4.10512 4.47242 4.29717C5.43498 5.48318 6.63626 6.45343 7.99825 7.1449C8.69839 7.50036 9.43294 7.77806 10.1887 7.97449C10.6125 8.08462 11.0429 8.16921 11.4777 8.22763C11.4585 7.50438 11.6013 6.78151 11.9011 6.11357C12.3407 5.13375 13.0932 4.32757 14.0404 3.82148C14.4416 3.60715 14.9741 3.43644 15.5215 3.34267ZM4.24335 10.8902C4.373 11.2551 4.56586 11.5974 4.81592 11.9005C5.30724 12.496 5.98919 12.9036 6.74641 13.0542C7.08369 13.1213 7.33213 13.4092 7.34916 13.7527C7.36618 14.0961 7.14743 14.4072 6.81843 14.5073C6.54594 14.5902 6.26676 14.648 5.98441 14.6801C6.17099 14.9206 6.39047 15.1361 6.63787 15.3195C7.19906 15.7356 7.876 15.9665 8.57451 15.9799C8.89143 15.986 9.1703 16.1907 9.27112 16.4912C9.37195 16.7917 9.27296 17.1232 9.02386 17.3192C7.97469 18.1447 6.76149 18.7204 5.47594 19.0143C6.54142 19.3555 7.65887 19.5312 8.78916 19.5298L8.79786 19.5298C10.2379 19.5447 11.6665 19.2726 13.0002 18.7293C14.3339 18.186 15.546 17.3823 16.5656 16.3653C17.5853 15.3483 18.392 14.1383 18.9388 12.806C19.1498 12.2917 19.3205 11.7633 19.4499 11.2254C19.6557 10.3696 19.757 9.48992 19.7501 8.60566L19.7501 8.59979V8.06979C19.7501 7.88794 19.8161 7.71228 19.936 7.57551C20.0053 7.49647 20.1264 7.31391 20.2955 7.01601C20.4561 6.73288 20.6339 6.39298 20.8188 6.03379C20.83 6.01207 20.8412 5.99024 20.8525 5.9683C20.3729 6.07245 19.8293 6.12703 19.2595 6.06545C19.079 6.04595 18.9118 5.96166 18.7887 5.82822C18.2858 5.28288 17.6162 4.91988 16.8848 4.79614C16.5602 4.74123 16.1679 4.7538 15.7748 4.82114C15.3477 4.8943 14.976 5.02231 14.7473 5.14448C14.093 5.49405 13.5733 6.0509 13.2696 6.72768C12.9659 7.40447 12.8954 8.16292 13.0692 8.88407C13.1246 9.11399 13.0683 9.35656 12.9174 9.53859C12.7664 9.72062 12.5384 9.82078 12.3022 9.80884C11.4588 9.76618 10.6243 9.63753 9.81142 9.42626C8.95152 9.20277 8.11579 8.88682 7.31921 8.4824C6.14643 7.88699 5.07838 7.1099 4.15354 6.18221C4.11135 6.39782 4.08993 6.61785 4.09008 6.8393L4.09007 6.84122C4.08903 7.39193 4.22418 7.93437 4.48349 8.42021C4.7428 8.90606 5.11822 9.32026 5.57633 9.62591C5.85436 9.81141 5.97608 10.1585 5.87483 10.477C5.77358 10.7955 5.47378 11.0086 5.13968 10.9995C4.83708 10.9913 4.53702 10.9545 4.24335 10.8902Z" fill="#121212"/>
	</g>

	<g class="sprite" id="icon-header-profile" width="24" height="24" viewBox="0 0 24 24" fill="none">
		<path d="M12 11.1763C15.0813 11.1763 17.5881 8.66944 17.5881 5.58816C17.5882 2.50678 15.0813 0 12 0C8.91862 0 6.41183 2.50678 6.41183 5.58816C6.41183 8.66944 8.91871 11.1763 12 11.1763ZM12 1.8142C14.081 1.8142 15.7739 3.50723 15.7739 5.58816C15.7739 7.66908 14.081 9.36211 12 9.36211C9.91898 9.36211 8.22604 7.66908 8.22604 5.58816C8.22604 3.50723 9.91902 1.8142 12 1.8142Z" fill="black"/>
		<path d="M12 11.8916C7.41009 11.8916 3.67589 15.6258 3.67589 20.2157V23.0927C3.67589 23.5936 4.08201 23.9997 4.58297 23.9997H19.417C19.9179 23.9997 20.3241 23.5936 20.3241 23.0927V20.2157C20.3242 15.6258 16.59 11.8916 12 11.8916ZM5.49009 22.1855V20.2157C5.49009 16.6261 8.4104 13.7058 12 13.7058C15.5896 13.7058 18.5099 16.6261 18.5099 20.2157V22.1855H5.49009Z" fill="black"/>
	</g>

	<g class="sprite" id="icon-carousel-sm-next" width="8" height="14" viewBox="0 0 8 14" fill="none">
		<path d="M1.83875 13.0669L7.49884 7.46693C7.56603 7.40026 7.6135 7.32804 7.64127 7.25026C7.66949 7.17248 7.68359 7.08915 7.68359 7.00026C7.68359 6.91137 7.66949 6.82804 7.64127 6.75026C7.6135 6.67248 7.56603 6.60026 7.49884 6.53359L1.83875 0.916927C1.68199 0.761371 1.48604 0.683594 1.25091 0.683594C1.01577 0.683594 0.814221 0.766927 0.646266 0.933594C0.478311 1.10026 0.394333 1.2947 0.394333 1.51693C0.394333 1.73915 0.478311 1.93359 0.646266 2.10026L5.58415 7.00026L0.646266 11.9003C0.489508 12.0558 0.411129 12.2474 0.411129 12.4749C0.411129 12.7029 0.495106 12.9003 0.663061 13.0669C0.831017 13.2336 1.02696 13.3169 1.25091 13.3169C1.47485 13.3169 1.67079 13.2336 1.83875 13.0669Z" fill="#121212"/>
	</g>

	<g class="sprite" id="icon-carousel-sm-prev" width="8" height="14" viewBox="0 0 8 14" fill="none">
		<path d="M6.16125 13.0669L0.501157 7.46693C0.433975 7.40026 0.386499 7.32804 0.358731 7.25026C0.330514 7.17248 0.316406 7.08915 0.316406 7.00026C0.316406 6.91137 0.330514 6.82804 0.358731 6.75026C0.386499 6.67248 0.433975 6.60026 0.501157 6.53359L6.16125 0.916927C6.31801 0.761371 6.51396 0.683594 6.74909 0.683594C6.98423 0.683594 7.18578 0.766927 7.35373 0.933594C7.52169 1.10026 7.60567 1.2947 7.60567 1.51693C7.60567 1.73915 7.52169 1.93359 7.35373 2.10026L2.41585 7.00026L7.35373 11.9003C7.51049 12.0558 7.58887 12.2474 7.58887 12.4749C7.58887 12.7029 7.50489 12.9003 7.33694 13.0669C7.16898 13.2336 6.97304 13.3169 6.74909 13.3169C6.52515 13.3169 6.32921 13.2336 6.16125 13.0669Z" fill="#121212"/>
	</g>

	<g class="sprite" id="icon-bg-black-check" width="14" height="14" viewBox="0 0 14 14" fill="none">
		<g clip-path="url(#clip0_509_5804)">
			<rect width="13.02" height="13" transform="matrix(1 0 0 -1 0.5 13.29)" fill="black"/>
			<path d="M9.88982 3.26709C9.81182 3.18909 9.71432 3.15009 9.59732 3.15009C9.48032 3.15009 9.37849 3.18909 9.29182 3.26709L3.66282 8.89609L1.23182 6.46509C1.14515 6.37843 1.04332 6.33509 0.926319 6.33509C0.809319 6.33509 0.711819 6.37843 0.633819 6.46509C0.555819 6.55176 0.514653 6.65143 0.510319 6.76409C0.505986 6.87676 0.547153 6.97643 0.633819 7.06309L3.33782 9.76709C3.36382 9.79309 3.40282 9.81693 3.45482 9.83859C3.50682 9.86026 3.55882 9.87109 3.61082 9.87109C3.66282 9.87109 3.71482 9.86026 3.76682 9.83859C3.81882 9.81693 3.85782 9.79309 3.88382 9.76709L9.83782 3.81309C9.94182 3.72643 9.99815 3.63543 10.0068 3.54009C10.0155 3.44476 9.97649 3.35376 9.88982 3.26709Z" fill="white"/>
		</g>
		<rect x="0.5" y="-0.5" width="12.02" height="12" transform="matrix(1 0 0 -1 0.5 12.29)" stroke="black"/>
		<defs>
			<clipPath id="clip0_509_5804">
				<rect width="13.02" height="13" transform="matrix(1 0 0 -1 0.5 13.29)" fill="white"/>
			</clipPath>
		</defs>
	</g>

	<g class="sprite" id="icon-close" width="20" height="20" viewBox="0 0 20 20" fill="none">
		<path d="M2.53464 19.3327L0.667969 17.466L8.13464 9.99935L0.667969 2.53268L2.53464 0.666016L10.0013 8.13268L17.468 0.666016L19.3346 2.53268L11.868 9.99935L19.3346 17.466L17.468 19.3327L10.0013 11.866L2.53464 19.3327Z" fill="#121212"/>
	</g>

	<g class="sprite" id="icon-bg-black-plus" width="24" height="24" viewBox="0 0 24 24" fill="none">
		<path d="M0 12C0 5.37258 5.37258 0 12 0C18.6274 0 24 5.37258 24 12C24 18.6274 18.6274 24 12 24C5.37258 24 0 18.6274 0 12Z" fill="black"/>
		<path d="M16.872 11.7364H12.728V7.52839C12.728 7.38972 12.68 7.26706 12.584 7.16039C12.488 7.05372 12.36 7.00039 12.2 7.00039C12.04 7.00039 11.912 7.05372 11.816 7.16039C11.72 7.26706 11.672 7.38972 11.672 7.52839V11.6724H7.528C7.38933 11.6724 7.26667 11.7204 7.16 11.8164C7.05333 11.9124 7 12.0431 7 12.2084C7 12.3737 7.048 12.5017 7.144 12.5924C7.24 12.6831 7.368 12.7284 7.528 12.7284H11.672V16.8724C11.672 17.0111 11.72 17.1337 11.816 17.2404C11.912 17.3471 12.0427 17.4004 12.208 17.4004C12.3733 17.4004 12.5013 17.3524 12.592 17.2564C12.6827 17.1604 12.728 17.0324 12.728 16.8724V12.7284H16.872C17.0107 12.7284 17.1333 12.6804 17.24 12.5844C17.3467 12.4884 17.4 12.3604 17.4 12.2004C17.4 12.0404 17.3493 11.9231 17.248 11.8484C17.1467 11.7737 17.0213 11.7364 16.872 11.7364Z" fill="white"/>
	</g>

	<g class="sprite" id="icon-filter-white" width="17" height="17" viewBox="0 0 17 17" fill="none">
		<path d="M0.43457 0.5V3.43516L6.74976 9.84734V16.5L10.1194 14.3632V9.84734L16.4346 3.43516V0.5L0.43457 0.5ZM15.4971 1.43634V2.77669H1.37207V1.43634H15.4971ZM9.18188 9.46672V13.8486L7.68726 14.7964V9.46672L2.0206 3.71303H14.8485L9.18188 9.46672Z" fill="#FEF2F2"/>
	</g>
	
	<g class="sprite" id="icon-cart-delete" width="18" height="20" viewBox="0 0 18 20" fill="none">
		<path d="M1 5H17M16 5L15.1327 17.1425C15.0579 18.1891 14.187 19 13.1378 19H4.86224C3.81296 19 2.94208 18.1891 2.86732 17.1425L2 5H16ZM7 9V15V9ZM11 9V15V9ZM12 5V2C12 1.44772 11.5523 1 11 1H7C6.44772 1 6 1.44772 6 2V5H12Z" stroke="#4A5568" stroke-width="2" stroke-linecap="round" stroke-linejoin="round"/>
	</g>

	<g class="sprite" id="icon-slim-bk-minus" width="20" height="2" viewBox="0 0 20 2" fill="none">
		<path d="M19.5 1.41406H0.5V0.414062H19.5V1.41406Z" fill="#121212"/>
	</g>

	<g class="sprite" id="icon-slim-bk-plus" width="20" height="20" viewBox="0 0 20 20" fill="none">
		<path d="M19.5 10.4141H0.5V9.41406H19.5V10.4141Z" fill="#121212"/>
		<path d="M10.5 0.414062V19.4141H9.5V0.414062H10.5Z" fill="#121212"/>
	</g>

	<g class="sprite" id="icon-black-edit" width="21" height="21" viewBox="0 0 21 21" fill="none">
		<path d="M2 20.6998C1.45 20.6998 0.979 20.5038 0.587 20.1118C0.195667 19.7205 0 19.2498 0 18.6998V4.6998C0 4.1498 0.195667 3.6788 0.587 3.2868C0.979 2.89547 1.45 2.6998 2 2.6998H10.925L8.925 4.6998H2V18.6998H16V11.7498L18 9.7498V18.6998C18 19.2498 17.8043 19.7205 17.413 20.1118C17.021 20.5038 16.55 20.6998 16 20.6998H2ZM13.175 3.2748L14.6 4.6748L8 11.2748V12.6998H9.4L16.025 6.0748L17.45 7.4748L10.25 14.6998H6V10.4498L13.175 3.2748ZM17.45 7.4748L13.175 3.2748L15.675 0.774805C16.075 0.374805 16.5543 0.174805 17.113 0.174805C17.671 0.174805 18.1417 0.374805 18.525 0.774805L19.925 2.1998C20.3083 2.58314 20.5 3.0498 20.5 3.5998C20.5 4.1498 20.3083 4.61647 19.925 4.9998L17.45 7.4748Z" fill="#808080"/>
	</g>

	<g class="sprite" id="icon-chevron-down" width="8" height="10" clip-rule="evenodd" fill-rule="evenodd" image-rendering="optimizeQuality" text-rendering="geometricPrecision" shape-rendering="geometricPrecision">
		<g>
			<title>Layer 1</title>
			<path stroke="null" style="vector-effect: non-scaling-stroke;" stroke-width="0" id="svg_1" d="m10.26924,2.07137c0.08955,-0.09468 0.23532,-0.09535 0.32529,-0.00089a0.22595,0.24059 0 0 1 0.00104,0.34281l-5.10129,5.43068c-0.08955,0.09491 -0.23532,0.09535 -0.32549,0.00111l-5.10191,-5.43179a0.22595,0.24059 0 0 1 0.00104,-0.34281c0.08996,-0.09446 0.23574,-0.0938 0.32529,0.00089l4.93781,5.25706l4.93823,-5.25706z" fill-rule="nonzero"/>
 		</g>
	</g>

	<g class="sprite" id="icon-profile-round-border" width="24" height="24" viewBox="0 0 24 24" fill="none">
		<path d="M11.9996 12.7268C12.7189 12.7268 13.4219 12.5136 14.0199 12.114C14.6179 11.7144 15.084 11.1465 15.3592 10.482C15.6344 9.81758 15.7064 9.08643 15.5661 8.38105C15.4258 7.67566 15.0795 7.02772 14.5709 6.51917C14.0624 6.01061 13.4145 5.66428 12.7091 5.52397C12.0037 5.38367 11.2725 5.45568 10.6081 5.7309C9.94361 6.00613 9.37569 6.47221 8.97612 7.07021C8.57655 7.66821 8.36328 8.37126 8.36328 9.09047C8.36444 10.0545 8.74792 10.9788 9.42962 11.6605C10.1113 12.3422 11.0356 12.7257 11.9996 12.7268ZM11.9996 6.90865C12.4312 6.90865 12.853 7.03661 13.2118 7.27635C13.5706 7.51609 13.8502 7.85685 14.0154 8.25552C14.1805 8.6542 14.2237 9.09289 14.1395 9.51612C14.0554 9.93935 13.8476 10.3281 13.5424 10.6332C13.2373 10.9384 12.8485 11.1462 12.4253 11.2304C12.0021 11.3145 11.5634 11.2713 11.1647 11.1062C10.766 10.9411 10.4253 10.6614 10.1855 10.3026C9.94579 9.94382 9.81783 9.52199 9.81783 9.09047C9.81783 8.51181 10.0477 7.95686 10.4569 7.54769C10.866 7.13852 11.421 6.90865 11.9996 6.90865Z" fill="black"/>
		<path d="M15.2725 13.4541H8.7271C8.052 13.4541 7.40455 13.7223 6.92719 14.1996C6.44982 14.677 6.18164 15.3245 6.18164 15.9996C6.18164 16.6747 6.44982 17.3221 6.92719 17.7995C7.40455 18.2768 8.052 18.545 8.7271 18.545H15.2725C15.9476 18.545 16.5951 18.2768 17.0725 17.7995C17.5498 17.3221 17.818 16.6747 17.818 15.9996C17.818 15.3245 17.5498 14.677 17.0725 14.1996C16.5951 13.7223 15.9476 13.4541 15.2725 13.4541ZM15.2725 17.0905H8.7271C8.43777 17.0905 8.16029 16.9755 7.95571 16.7709C7.75112 16.5664 7.63619 16.2889 7.63619 15.9996C7.63619 15.7102 7.75112 15.4328 7.95571 15.2282C8.16029 15.0236 8.43777 14.9086 8.7271 14.9086H15.2725C15.5619 14.9086 15.8394 15.0236 16.0439 15.2282C16.2485 15.4328 16.3635 15.7102 16.3635 15.9996C16.3635 16.2889 16.2485 16.5664 16.0439 16.7709C15.8394 16.9755 15.5619 17.0905 15.2725 17.0905Z" fill="black"/>
		<path d="M12.0009 22.909C9.84328 22.909 7.73412 22.2692 5.94013 21.0705C4.14614 19.8718 2.74789 18.168 1.92221 16.1746C1.09652 14.1813 0.880487 11.9878 1.30142 9.87166C1.72235 7.7555 2.76134 5.81169 4.287 4.28602C5.81266 2.76036 7.75648 1.72137 9.87263 1.30044C11.9888 0.879511 14.1822 1.09555 16.1756 1.92123C18.169 2.74691 19.8728 4.14516 21.0715 5.93915C22.2702 7.73314 22.91 9.8423 22.91 11.9999C22.9067 14.8922 21.7563 17.6651 19.7112 19.7102C17.666 21.7553 14.8932 22.9057 12.0009 22.909ZM12.0009 2.54537C10.131 2.54537 8.30302 3.09987 6.74823 4.13875C5.19344 5.17763 3.98162 6.65423 3.26603 8.38182C2.55044 10.1094 2.36321 12.0104 2.72801 13.8444C3.09282 15.6784 3.99328 17.363 5.31552 18.6853C6.63776 20.0075 8.3224 20.908 10.1564 21.2728C11.9904 21.6376 13.8914 21.4504 15.619 20.7348C17.3466 20.0192 18.8232 18.8074 19.8621 17.2526C20.9009 15.6978 21.4554 13.8698 21.4554 11.9999C21.4526 9.4933 20.4555 7.09018 18.6831 5.31773C16.9106 3.54529 14.5075 2.54826 12.0009 2.54537Z" fill="black"/>
	</g>

	<g class="sprite" id="icon-order-bag" width="24" height="24" viewBox="0 0 24 24" fill="none">
		<path d="M21.4768 3.8285C21.407 3.23365 21.1168 2.68657 20.6635 2.29514C20.2101 1.9037 19.6266 1.69633 19.0279 1.71392H4.9708C4.37213 1.69633 3.7886 1.9037 3.33528 2.29514C2.88197 2.68657 2.59178 3.23365 2.52194 3.8285L1.11965 18.6142C1.07716 19.0646 1.13041 19.519 1.27592 19.9474C1.42143 20.3758 1.6559 20.7686 1.96394 21.0999C2.3136 21.4771 2.738 21.7773 3.21009 21.9814C3.68219 22.1855 4.19163 22.289 4.70594 22.2854H19.2928C19.8073 22.2892 20.3169 22.1857 20.7891 21.9816C21.2614 21.7775 21.6859 21.4772 22.0357 21.0999C22.3437 20.7686 22.5782 20.3758 22.7237 19.9474C22.8692 19.519 22.9224 19.0646 22.8799 18.6142L21.4768 3.8285ZM20.7662 19.9428C20.5777 20.1441 20.3494 20.304 20.0957 20.4121C19.842 20.5203 19.5686 20.5744 19.2928 20.5711H4.70594C4.43042 20.5749 4.15714 20.5213 3.90346 20.4137C3.64979 20.3061 3.42129 20.1469 3.23251 19.9462C3.08634 19.7908 2.97472 19.6062 2.90499 19.4045C2.83526 19.2029 2.809 18.9887 2.82794 18.7762L4.22937 3.9905C4.26282 3.82232 4.35674 3.67224 4.49336 3.56863C4.62998 3.46502 4.79983 3.41506 4.9708 3.42821H19.0279C19.1985 3.41572 19.3677 3.46598 19.5038 3.56953C19.6399 3.67309 19.7334 3.8228 19.7668 3.9905L21.1708 18.7762C21.1897 18.9887 21.1635 19.2029 21.0937 19.4045C21.024 19.6062 20.9124 19.7908 20.7662 19.9462V19.9428Z" fill="black"/>
		<path d="M15.8566 4.71387C15.6293 4.71387 15.4112 4.80417 15.2505 4.96492C15.0897 5.12566 14.9994 5.34368 14.9994 5.57101C14.9994 6.36666 14.6834 7.12972 14.1208 7.69233C13.5582 8.25494 12.7951 8.57101 11.9994 8.57101C11.2038 8.57101 10.4407 8.25494 9.87812 7.69233C9.31551 7.12972 8.99944 6.36666 8.99944 5.57101C8.99944 5.34368 8.90914 5.12566 8.74839 4.96492C8.58765 4.80417 8.36963 4.71387 8.1423 4.71387C7.91497 4.71387 7.69695 4.80417 7.53621 4.96492C7.37546 5.12566 7.28516 5.34368 7.28516 5.57101C7.28516 6.82132 7.78184 8.02041 8.66594 8.90451C9.55004 9.78861 10.7491 10.2853 11.9994 10.2853C13.2497 10.2853 14.4488 9.78861 15.3329 8.90451C16.217 8.02041 16.7137 6.82132 16.7137 5.57101C16.7137 5.34368 16.6234 5.12566 16.4627 4.96492C16.3019 4.80417 16.0839 4.71387 15.8566 4.71387Z" fill="black"/>
	</g>

	<g class="sprite" id="icon-account-logout" width="24" height="24" viewBox="0 0 24 24" fill="none">
		<g clip-path="url(#clip0_845_4504)">
			<path d="M14.5717 15.429C14.3444 15.429 14.1264 15.5193 13.9656 15.6801C13.8049 15.8408 13.7146 16.0588 13.7146 16.2862V19.0127L2.57171 21.2405V2.76045L13.7146 4.98903V7.71474C13.7146 7.94207 13.8049 8.16009 13.9656 8.32083C14.1264 8.48158 14.3444 8.57188 14.5717 8.57188C14.799 8.57188 15.0171 8.48158 15.1778 8.32083C15.3385 8.16009 15.4289 7.94207 15.4289 7.71474V4.28617C15.4289 4.08857 15.3607 3.89703 15.2357 3.74396C15.1107 3.59089 14.9367 3.48569 14.7431 3.44617L1.88599 0.87474C1.76144 0.849316 1.6328 0.851913 1.50938 0.882343C1.38596 0.912773 1.27085 0.970274 1.17239 1.05068C1.07394 1.13109 0.994596 1.23238 0.94012 1.34724C0.885644 1.46209 0.857396 1.58762 0.857422 1.71474V22.2862C0.857396 22.4133 0.885644 22.5388 0.94012 22.6537C0.994596 22.7685 1.07394 22.8698 1.17239 22.9502C1.27085 23.0306 1.38596 23.0881 1.50938 23.1186C1.6328 23.149 1.76144 23.1516 1.88599 23.1262L14.7431 20.5547C14.9367 20.5152 15.1107 20.41 15.2357 20.257C15.3607 20.1039 15.4289 19.9123 15.4289 19.7147V16.2862C15.4289 16.0588 15.3385 15.8408 15.1778 15.6801C15.0171 15.5193 14.799 15.429 14.5717 15.429Z" fill="black"/>
			<path d="M22.8926 11.3945L18.6068 7.10877C18.4452 6.95264 18.2287 6.86624 18.0039 6.8682C17.7792 6.87015 17.5642 6.96029 17.4053 7.11922C17.2464 7.27814 17.1562 7.49312 17.1543 7.71786C17.1523 7.9426 17.2387 8.15911 17.3948 8.32077L20.2174 11.1433H9.42941C9.20208 11.1433 8.98406 11.2337 8.82332 11.3944C8.66257 11.5551 8.57227 11.7732 8.57227 12.0005C8.57227 12.2278 8.66257 12.4458 8.82332 12.6066C8.98406 12.7673 9.20208 12.8576 9.42941 12.8576H20.2174L17.3948 15.6802C17.313 15.7593 17.2477 15.8539 17.2028 15.9584C17.1578 16.063 17.1342 16.1755 17.1332 16.2893C17.1322 16.4031 17.1539 16.516 17.197 16.6213C17.2401 16.7266 17.3037 16.8223 17.3842 16.9028C17.4647 16.9833 17.5604 17.047 17.6657 17.0901C17.7711 17.1331 17.8839 17.1548 17.9978 17.1538C18.1116 17.1529 18.224 17.1292 18.3286 17.0843C18.4332 17.0394 18.5278 16.9741 18.6068 16.8922L22.8926 12.6065C23.0532 12.4458 23.1435 12.2278 23.1435 12.0005C23.1435 11.7732 23.0532 11.5552 22.8926 11.3945Z" fill="black"/>
		</g>
		<defs>
			<clipPath id="clip0_845_4504">
				<rect width="24" height="24" fill="white"/>
			</clipPath>
		</defs>
	</g>

	<g class="sprite" id="icon-wishlist-heart-account" width="22" height="20" viewBox="0 0 22 20" fill="none">
		<path d="M11 20.0002C10.7426 20.0002 10.4951 19.901 10.309 19.7232L2.716 12.4602C2.10385 11.8995 1.57694 11.2523 1.152 10.5392C0.397745 9.22143 0.000647536 7.72956 0 6.2112C0.000365719 4.93262 0.395255 3.68529 1.13077 2.63945C1.86629 1.59361 2.90661 0.800201 4.10976 0.367508C5.3129 -0.0651861 6.62025 -0.116087 7.85339 0.221752C9.08653 0.559591 10.1854 1.26971 11 2.2552C11.8146 1.26971 12.9135 0.559591 14.1466 0.221752C15.3798 -0.116087 16.6871 -0.0651861 17.8902 0.367508C19.0934 0.800201 20.1337 1.59361 20.8692 2.63945C21.6047 3.68529 21.9996 4.93262 22 6.2112C21.9994 7.72956 21.6023 9.22143 20.848 10.5392C20.4231 11.2523 19.8962 11.8995 19.284 12.4602L11.691 19.7232C11.5049 19.901 11.2574 20.0002 11 20.0002ZM6.211 2.0002C5.09458 2.00152 4.02426 2.44561 3.23483 3.23503C2.44541 4.02446 2.00132 5.09478 2 6.2112C2.00067 7.38045 2.30641 8.52929 2.887 9.5442C3.21836 10.0904 3.62692 10.5859 4.1 11.0152L11 17.6152L17.9 11.0152C18.3727 10.5858 18.7809 10.0903 19.112 9.5442C19.6929 8.52938 19.999 7.38054 20 6.2112C20.0001 5.30734 19.7094 4.42742 19.1708 3.70154C18.6322 2.97565 17.8744 2.44232 17.0093 2.18039C16.1442 1.91845 15.2178 1.94182 14.3671 2.24703C13.5163 2.55223 12.7863 3.12309 12.285 3.8752L11.832 4.5552C11.7353 4.68454 11.6097 4.78955 11.4653 4.86188C11.3208 4.93421 11.1615 4.97187 11 4.97187C10.8385 4.97187 10.6792 4.93421 10.5347 4.86188C10.3903 4.78955 10.2647 4.68454 10.168 4.5552L9.715 3.8752C9.33112 3.29769 8.81022 2.82421 8.1988 2.49704C7.58738 2.16986 6.90446 1.99917 6.211 2.0002Z" fill="black"/>
	</g>

	<g class="sprite" id="icon-edit-profile-img" width="40" height="40" viewBox="0 0 40 40" fill="none">
		<circle cx="20" cy="20" r="20" fill="black"/>
		<g clip-path="url(#clip0_845_4513)">
			<path d="M27.8577 18.5716C27.6683 18.5716 27.4866 18.6468 27.3526 18.7808C27.2187 18.9147 27.1434 19.0964 27.1434 19.2859V24.0409C27.1423 25.0527 26.7398 26.0228 26.0244 26.7382C25.3089 27.4537 24.3388 27.8561 23.327 27.8573H15.9598C14.948 27.8561 13.9779 27.4537 13.2625 26.7382C12.547 26.0228 12.1445 25.0527 12.1434 24.0409V16.6737C12.1445 15.6619 12.547 14.6918 13.2625 13.9763C13.9779 13.2609 14.948 12.8584 15.9598 12.8573H20.7148C20.9043 12.8573 21.086 12.782 21.2199 12.6481C21.3539 12.5141 21.4291 12.3324 21.4291 12.143C21.4291 11.9536 21.3539 11.7719 21.2199 11.6379C21.086 11.504 20.9043 11.4287 20.7148 11.4287H15.9598C14.5692 11.4302 13.236 11.9833 12.2527 12.9666C11.2694 13.9499 10.7164 15.2831 10.7148 16.6737V24.0409C10.7164 25.4315 11.2694 26.7647 12.2527 27.748C13.236 28.7313 14.5692 29.2843 15.9598 29.2859H23.327C24.7176 29.2843 26.0508 28.7313 27.0341 27.748C28.0174 26.7647 28.5705 25.4315 28.572 24.0409V19.2859C28.572 19.0964 28.4967 18.9147 28.3628 18.7808C28.2288 18.6468 28.0471 18.5716 27.8577 18.5716Z" fill="white"/>
			<path d="M17.8574 18.5714V21.4285C17.8574 21.618 17.9327 21.7997 18.0666 21.9336C18.2006 22.0676 18.3823 22.1428 18.5717 22.1428H21.4289C21.6183 22.1428 21.7999 22.0675 21.9339 21.9335L28.3624 15.505C28.8752 14.9922 29.1633 14.2966 29.1633 13.5714C29.1633 12.8462 28.8752 12.1506 28.3624 11.6378C27.8496 11.125 27.1541 10.8369 26.4289 10.8369C25.7036 10.8369 25.0081 11.125 24.4953 11.6378L18.0667 18.0664C17.9327 18.2003 17.8575 18.382 17.8574 18.5714ZM25.5053 12.6478C25.6256 12.5222 25.7698 12.4219 25.9294 12.3528C26.089 12.2836 26.2607 12.2471 26.4347 12.2452C26.6086 12.2433 26.7811 12.2762 26.9422 12.3419C27.1032 12.4076 27.2495 12.5048 27.3725 12.6278C27.4955 12.7508 27.5926 12.8971 27.6583 13.0581C27.724 13.2191 27.7569 13.3917 27.755 13.5656C27.7532 13.7395 27.7166 13.9113 27.6475 14.0709C27.5783 14.2305 27.478 14.3747 27.3524 14.495L27.1431 14.7043L25.296 12.8571L25.5053 12.6478ZM19.286 18.8671L24.286 13.8671L26.1331 15.7143L21.1331 20.7143H19.286V18.8671Z" fill="white"/>
		</g>
		<defs>
			<clipPath id="clip0_845_4513">
				<rect width="20" height="20" fill="white" transform="translate(10 10)"/>
			</clipPath>
		</defs>
	</g>

	<g class="sprite" id="icon-checkmark-thin" width="17" height="13" viewBox="0 0 17 13" fill="none" xmlns="http://www.w3.org/2000/svg">
		<path d="M6.0501 12.1496L0.725098 6.82461L1.7751 5.74961L6.0501 10.0246L15.2251 0.849609L16.2751 1.92461L6.0501 12.1496Z" fill="#121212"/>
	</g>

</svg>